<svg width="21" height="20" viewBox="0 0 21 20" fill="none" xmlns="http://www.w3.org/2000/svg">
<path d="M3.4819 0.490874L10.4996 7.50855L17.4809 0.527235C17.6351 0.363097 17.8209 0.231792 18.0271 0.141194C18.2332 0.0505961 18.4556 0.00257135 18.6808 0C19.163 0 19.6254 0.191544 19.9664 0.532495C20.3073 0.873445 20.4989 1.33587 20.4989 1.81805C20.5031 2.04095 20.4617 2.26236 20.3773 2.4687C20.2929 2.67504 20.1672 2.86195 20.008 3.01796L12.9358 9.99928L20.008 17.0715C20.3076 17.3646 20.4833 17.7616 20.4989 18.1805C20.4989 18.6627 20.3073 19.1251 19.9664 19.4661C19.6254 19.807 19.163 19.9986 18.6808 19.9986C18.4491 20.0082 18.2179 19.9695 18.002 19.885C17.786 19.8005 17.59 19.672 17.4264 19.5077L10.4996 12.49L3.50008 19.4895C3.34647 19.6482 3.16295 19.7748 2.96012 19.8622C2.7573 19.9496 2.53918 19.9959 2.31835 19.9986C1.83617 19.9986 1.37374 19.807 1.03279 19.4661C0.69184 19.1251 0.500296 18.6627 0.500296 18.1805C0.496057 17.9576 0.537412 17.7362 0.621823 17.5299C0.706235 17.3235 0.831921 17.1366 0.99117 16.9806L8.06339 9.99928L0.99117 2.92706C0.691527 2.63392 0.515821 2.23695 0.500296 1.81805C0.500296 1.33587 0.69184 0.873445 1.03279 0.532495C1.37374 0.191544 1.83617 0 2.31835 0C2.75468 0.00545415 3.17283 0.181805 3.4819 0.490874Z" fill="#3374F3"/>
</svg>
